<?xml version="1.0" encoding="utf-8"?>
<!-- Generator: Adobe Illustrator 17.0.0, SVG Export Plug-In . SVG Version: 6.00 Build 0)  -->
<!DOCTYPE svg PUBLIC "-//W3C//DTD SVG 1.1//EN" "http://www.w3.org/Graphics/SVG/1.1/DTD/svg11.dtd">
<svg version="1.1" id="Capa_1" xmlns="http://www.w3.org/2000/svg" xmlns:xlink="http://www.w3.org/1999/xlink" x="0px" y="0px"
	 width="250.539px" height="232.805px" viewBox="0 0 250.539 232.805" enable-background="new 0 0 250.539 232.805"
	 xml:space="preserve">
<path fill="#BE1622" d="M155.375,0.07c33.234,11.588,56.03,42.744,57.326,80.356c0.495,14.253-2.384,27.836-7.908,39.962
	l44.409,41.642c1.699,1.597,1.791,4.286,0.204,6l-18.437,19.971c-1.583,1.719-4.243,1.811-5.942,0.209l-41.768-39.011
	c-14.762,13.447-33.544,21.898-54.972,22.656c-24.151,0.849-46.952-8.248-63.331-23.675l-37.899,40.676
	c-1.583,1.713-4.243,1.811-5.942,0.214L1.338,170.438c-1.699-1.597-1.791-4.286-0.209-6.005l53.113-57.467
	c1.583-1.713,5.524-2.33,7.471,0.374c14.554,17.325,33.967,28.486,57.584,27.656c13.311-0.471,26.001-3.617,36.375-11.743
	l-36.282-34.389l-23.656,25.612c-1.583,1.714-4.243,1.811-5.942,0.209L70.043,96.082c-1.699-1.597-1.791-4.286-0.209-6.005
	l57.035-61.773c0,0,1.068-1.112,2.044-1.515c0.99-0.413,2.767-0.471,2.767-0.471l35.768-1.262c5.335-0.189,6.976,4.398,4.219,7.175
	l-27.855,30.535l36.564,34.268c5.811-10.665,8.947-23.03,8.49-36.307c-0.874-25.316-12.335-45.511-34.467-58.749
	c0,0-0.82-0.563-0.345-1.412C154.53-0.275,155.375,0.07,155.375,0.07"/>
<path fill="#BE1622" d="M110.232,177.751c-2.029-0.281-4.646,1.626-4.961,3.665c-1.709,11.18-5.243,28.525-8.068,43.889
	c-0.437,2.364,0.772,4.956,3.126,5.296c8.539,1.238,15.316,2.189,25.17,2.204c11.529,0.024,21.753-1.558,29.423-2.888
	c1.655-0.287,2.961-1.859,2.558-3.51c-0.587-2.413-1.083-4.442-1.597-6.529c-0.374-1.529-1.922-2.311-3.461-2.029
	c-4.66,0.855-9.136,1.646-15.039,2.156c-3.922,0.34-6.515,0.481-10.083,0.495c-2.223,0.005-3.563-1.704-3.587-3.961
	c-0.083-7.927-0.165-15.724-0.243-22.928c-0.019-1.757,1.345-3.209,3.087-3.252c2.961-0.073,6.709-0.204,10.966-0.689
	c3.18-0.369,5.131-0.719,8.117-1.257c1.374-0.248,2.121-1.762,1.786-3.131c-0.432-1.772-0.942-3.854-1.49-6.112
	c-0.316-1.287-1.481-2.126-2.777-1.922c-6.476,1.019-9.432,1.524-15.52,1.675C120.839,179.096,116.907,178.668,110.232,177.751"/>
<path fill="#BE1622" d="M181.612,160.08c1.005-0.738,2.301-0.748,3.185,0.136c1.636,1.636,2.913,2.903,5.005,4.99
	c0.84,0.84,1.068,2.34,0.121,3.054c-2.316,1.752-3.869,2.922-6.447,4.631c-2.388,1.583-4.131,2.602-6.253,3.84
	c-1.039,0.607-1.879,1.733-1.325,2.811c0.981,1.913,1.466,2.859,2.51,4.883c0.524,1.02,1.689,1.733,2.68,1.165
	c2.99-1.718,4.884-2.806,7.879-4.796c3.039-2.014,4.32-3.02,7.578-5.49c0.932-0.709,2.131-1.257,2.966-0.427
	c2.306,2.301,3.437,3.427,5.534,5.505c0.786,0.782,1.102,2.165,0.233,2.85c-2.966,2.34-5.466,4.301-9.146,6.787
	c-3.714,2.51-7.024,4.417-9.801,5.995c-0.888,0.505-1.121,1.646-0.65,2.563c0.884,1.733,1.189,2.325,2.112,4.116
	c0.558,1.092,1.845,1.748,2.908,1.146c3.631-2.068,6.646-3.806,10.699-6.549c4.146-2.811,6.185-4.452,10.282-7.704
	c0.825-0.66,1.947-0.65,2.694,0.102c1.719,1.709,3.291,3.277,5.456,5.432c0.927,0.922,1.51,2.52,0.485,3.33
	c-6.461,5.116-13.233,10.345-22.544,15.573c-8.529,4.791-13.233,6.66-22.816,10.364c-1.82,0.704-5.049,0.417-5.937-2.277
	c-4.117-12.505-8.874-26.932-14.185-43.04c-0.816-2.481,0.476-5.054,3.015-5.923c4.354-1.49,7.122-2.815,11.432-5.117
	C174.325,165.333,177.393,163.187,181.612,160.08"/>
<path fill="#BE1622" d="M72.9,178.978c0.587-1.277,1.66-1.646,2.922-1.053l6.151,2.951c1.262,0.597,1.811,2.15,1.223,3.422
	l-1.947,4.296c-0.587,1.277-1.922,1.67-3.185,1.078l-7.121-3.558c-1.262-0.592-1.165-1.976-0.573-3.253L72.9,178.978z
	 M63.482,160.653c-7.126,7.481-25.301,27.297-31.612,34.389c-0.951,1.073-1.214,2.791-0.102,3.694c3.087,2.5,5.01,4.058,8.355,6.461
	c3.583,2.573,5.694,3.898,9.427,6.243c0.947,0.597,2.136,0.126,2.748-0.816l8.267-12.699c0.738-1.141,2.918-2.757,4.767-1.728
	c3.52,1.961,5.461,2.884,9.063,4.495c4.112,1.83,6.16,2.587,10.743,4.209c1.592,0.563,4.374-0.563,4.976-2.553
	c1.942-6.442,4.199-13.991,6.961-23.195c0.558-1.859-0.306-4.553-2.112-5.223c-5.286-1.966-9.461-3.588-15.102-6.714
	c-4.602-2.553-8-4.554-11.893-7.359C66.521,158.818,64.711,159.361,63.482,160.653"/>
</svg>
